<svg width="44" height="44" viewBox="0 0 44 44" fill="none" xmlns="http://www.w3.org/2000/svg">
<g clip-path="url(#clip0_1660_14)">
<path d="M37.2539 22.2994C37.2539 20.9883 37.1475 20.0316 36.9173 19.0395H21.9467V24.9568H30.7341C30.557 26.4274 29.6003 28.642 27.4742 30.1301L27.4444 30.3282L32.1779 33.9951L32.5058 34.0278C35.5176 31.2463 37.2539 27.1537 37.2539 22.2994Z" fill="white"/>
<path d="M21.9467 37.8901C26.2518 37.8901 29.8659 36.4727 32.5058 34.0278L27.4742 30.1301C26.1278 31.0691 24.3206 31.7246 21.9467 31.7246C17.7301 31.7246 14.1514 28.9431 12.8756 25.0986L12.6886 25.1145L7.76674 28.9236L7.70238 29.1025C10.3244 34.3112 15.7103 37.8901 21.9467 37.8901Z" fill="white"/>
<path d="M12.8756 25.0986C12.539 24.1065 12.3442 23.0434 12.3442 21.945C12.3442 20.8465 12.539 19.7836 12.8579 18.7914L12.849 18.5802L7.86542 14.7099L7.70237 14.7874C6.62169 16.9489 6.0016 19.3761 6.0016 21.945C6.0016 24.514 6.62169 26.9411 7.70237 29.1025L12.8756 25.0986Z" fill="white"/>
<path d="M21.9467 12.1654C24.9407 12.1654 26.9604 13.4587 28.112 14.5395L32.6121 10.1457C29.8483 7.57679 26.2518 6 21.9467 6C15.7103 6 10.3244 9.57875 7.70238 14.7874L12.8579 18.7915C14.1514 14.9469 17.7301 12.1654 21.9467 12.1654Z" fill="white"/>
</g>
<defs>
<clipPath id="clip0_1660_14">
<rect width="31.2704" height="32" fill="white" transform="translate(6 6)"/>
</clipPath>
</defs>
</svg>
